<?xml version="1.0" standalone="no"?>
<!DOCTYPE svg PUBLIC "-//W3C//DTD SVG 20010904//EN"
 "http://www.w3.org/TR/2001/REC-SVG-20010904/DTD/svg10.dtd">
<svg version="1.0" xmlns="http://www.w3.org/2000/svg"
 width="500.000000pt" height="500.000000pt" viewBox="0 0 500.000000 500.000000"
 preserveAspectRatio="xMidYMid meet">
<metadata>
Created by potrace 1.14, written by Peter Selinger 2001-2017
</metadata>
<g transform="translate(0.000000,500.000000) scale(0.100000,-0.100000)"
fill="#000000" stroke="none">
<path d="M0 2500 l0 -2500 2500 0 2500 0 0 2500 0 2500 -2500 0 -2500 0 0
-2500z m642 -790 c21 -6 51 -22 68 -36 26 -23 30 -32 30 -79 0 -43 -5 -57 -26
-79 -35 -35 -94 -49 -179 -44 -82 6 -135 29 -135 59 0 19 4 20 58 16 31 -3 71
-8 89 -12 24 -6 36 -2 53 15 27 27 22 33 -19 19 -17 -6 -62 -9 -98 -7 -54 3
-69 8 -84 27 -24 29 -24 53 -1 80 35 44 158 65 244 41z m382 -1 c22 -6 52 -24
68 -39 23 -23 28 -37 28 -75 0 -88 -78 -131 -218 -123 -75 5 -127 29 -127 59
0 19 79 24 128 8 42 -14 87 -1 87 26 0 11 -5 13 -26 5 -35 -14 -141 -13 -167
1 -64 34 -43 109 38 137 40 14 141 14 189 1z m381 0 c44 -12 75 -35 75 -56 0
-17 -90 -18 -136 -1 -27 9 -37 9 -58 -6 -29 -19 -36 -42 -8 -31 35 14 130 17
166 5 45 -14 62 -44 47 -82 -17 -46 -64 -63 -171 -63 -82 0 -100 3 -132 23
-90 56 -65 180 42 210 48 14 127 14 175 1z m310 -114 l0 -120 -57 -3 -58 -3 0
126 0 126 58 -3 57 -3 0 -120z m135 95 l0 -30 -60 0 c-56 0 -60 1 -60 23 0 33
7 37 67 37 52 0 53 0 53 -30z m1185 20 c37 -8 75 -40 75 -61 0 -12 -127 -11
-135 1 -8 13 -75 13 -75 0 0 -12 29 -18 112 -22 77 -4 108 -24 108 -70 0 -68
-40 -88 -180 -88 -101 0 -154 13 -175 43 -28 40 -20 47 54 47 39 0 73 -4 76
-10 9 -15 88 -13 83 3 -3 7 -33 14 -85 17 -85 6 -127 24 -138 60 -10 31 18 66
62 78 49 13 167 14 218 2z m945 -20 l0 -30 -60 0 c-56 0 -60 1 -60 23 0 33 7
37 67 37 52 0 53 0 53 -30z m-690 -15 c0 -18 5 -25 20 -25 16 0 20 -7 20 -35
0 -28 -4 -35 -20 -35 -11 0 -20 -7 -20 -15 0 -8 9 -15 20 -15 17 0 20 -7 20
-40 l0 -40 -60 0 c-72 0 -100 21 -100 75 0 24 -5 35 -15 35 -10 0 -15 11 -15
35 0 24 5 35 15 35 9 0 15 9 15 25 0 24 3 25 60 25 57 0 60 -1 60 -25z m520 0
c0 -18 5 -25 20 -25 16 0 20 -7 20 -35 0 -28 -4 -35 -20 -35 -11 0 -20 -6 -20
-14 0 -7 9 -16 20 -19 15 -4 20 -14 20 -41 l0 -36 -58 0 c-74 0 -102 18 -102
67 0 26 -5 36 -20 40 -14 4 -20 14 -20 35 0 21 6 31 20 35 13 3 20 14 20 29 0
23 3 24 60 24 57 0 60 -1 60 -25z m-1960 -115 l0 -90 -60 0 -60 0 0 83 c0 46
3 87 7 90 3 4 30 7 60 7 l53 0 0 -90z m136 75 c5 -13 9 -13 34 0 37 19 73 19
110 0 34 -18 42 -42 38 -111 l-3 -49 -57 -3 -58 -3 0 45 c0 48 -20 79 -45 70
-16 -7 -17 -9 -19 -69 l-1 -40 -60 0 -60 0 -3 74 c-2 41 -1 80 2 88 8 19 115
18 122 -2z m314 -34 c0 -52 16 -76 44 -65 12 5 16 19 16 60 l0 54 60 0 60 0 0
-90 0 -90 -60 0 c-47 0 -60 3 -60 15 0 18 -1 18 -36 0 -40 -21 -87 -19 -118 6
-23 18 -26 27 -26 83 0 34 3 66 7 69 3 4 30 7 60 7 l53 0 0 -49z m438 23 c2
-15 -9 -29 -40 -50 l-43 -29 40 -5 c37 -5 40 -8 40 -35 l0 -30 -116 -3 c-110
-2 -117 -2 -122 18 -6 23 7 38 60 72 l38 23 -50 5 c-50 5 -52 6 -46 50 1 7 43
10 119 8 110 -3 117 -4 120 -24z m871 0 c13 -13 21 -41 26 -86 l7 -68 -54 0
c-30 0 -59 5 -64 10 -8 8 -19 8 -38 0 -65 -24 -136 -1 -136 45 0 35 36 55 97
55 29 0 53 4 53 9 0 16 -21 24 -33 12 -12 -12 -117 -15 -117 -3 1 37 50 52
153 49 71 -3 91 -7 106 -23z m371 -64 l0 -91 -57 3 -58 3 -3 74 c-2 41 -1 80
2 88 4 9 24 13 61 13 l55 0 0 -90z m265 76 c60 -25 75 -94 29 -137 -24 -22
-34 -24 -124 -24 -90 0 -100 2 -124 24 -49 46 -26 128 39 144 43 10 147 6 180
-7z m185 -1 c0 -18 8 -18 40 0 33 19 74 19 110 0 34 -18 42 -42 38 -111 l-3
-49 -60 0 -60 0 -3 52 c-5 87 -62 75 -62 -13 l0 -45 -57 3 -58 3 -3 74 c-2 41
-1 80 2 88 8 20 116 18 116 -2z"/>
<path d="M525 1640 c-10 -17 5 -30 33 -30 34 0 57 14 48 29 -9 14 -73 15 -81
1z"/>
<path d="M900 1640 c-13 -9 -13 -11 0 -20 8 -5 26 -10 40 -10 14 0 32 5 40 10
13 9 13 11 0 20 -8 5 -26 10 -40 10 -14 0 -32 -5 -40 -10z"/>
<path d="M1287 1573 c-28 -7 -14 -28 23 -31 29 -3 60 11 49 22 -8 8 -54 14
-72 9z"/>
<path d="M3478 1549 c-24 -13 -23 -29 2 -29 13 0 20 7 20 20 0 23 1 23 -22 9z"/>
<path d="M4122 1588 c-25 -25 -6 -68 30 -68 9 0 22 9 28 19 13 25 13 27 -6 45
-19 19 -36 20 -52 4z"/>
</g>
</svg>
